<?xml version="1.0" encoding="UTF-8"?>
<svg width="16px" height="16px" viewBox="0 0 16 16" version="1.1" xmlns="http://www.w3.org/2000/svg" xmlns:xlink="http://www.w3.org/1999/xlink">
    <title>Favicon Export/safari-pinned-tab</title>
    <g id="Favicon" stroke="none" stroke-width="1" fill="none" fill-rule="evenodd">
        <g id="Safari-Pinned-Tab" transform="translate(-150.000000, -424.000000)" fill="#000000">
            <g id="Useless-Layers" transform="translate(149.000000, 150.000000)">
                <g id="Export" transform="translate(1.000000, 274.000000)">
                    <path d="M11.2162127,1.32448671 C11.2996128,1.35823345 11.3659363,1.42442845 11.4000467,1.50796462 L11.9330519,2.75328864 C11.9684102,2.83606175 11.9695684,2.92945972 11.9362711,3.01288803 C11.9029738,3.09631634 11.8379556,3.16292323 11.7555532,3.19802167 L9.93031353,3.97370277 C9.90945506,3.98600887 9.88705936,3.99617195 9.86338234,4.00386049 L9.85122544,4.00665285 L8.06799145,4.76496173 C8.04716489,4.77721454 8.024811,4.78733241 8.00118446,4.79498657 L7.98764045,4.79827713 L6.20636049,5.55618801 C6.18525465,5.56875251 6.16256068,5.57911777 6.13854526,5.58693726 L6.12500652,5.58959239 L4.34436863,6.34706836 C4.32301829,6.35983883 4.30003653,6.37035519 4.27570121,6.3782575 L4.26142154,6.38121667 L3.93116293,6.52108819 C3.98372887,6.59872799 4.02641442,6.68499813 4.05685567,6.77868666 C4.09297014,6.88983558 4.10940603,7.00519749 4.10654742,7.11977934 L12.1806777,4.49550592 C12.3578302,4.43794557 12.5483371,4.53561589 12.6061867,4.71365868 L14.5963604,10.8387835 C14.7015415,11.1624977 14.5512453,11.507619 14.2568549,11.6541848 L14.1643263,11.691978 L5.82448724,14.4017559 C5.50239172,14.5064111 5.1582229,14.3544867 5.01138216,14.0584668 L4.97346919,13.9654504 L3.06937707,8.10764771 C2.6527905,8.09600252 2.26901287,7.82484846 2.13227743,7.40402004 C1.9998661,6.99649987 2.13737522,6.56636238 2.44604087,6.30864962 L2.09243812,5.46526879 C2.02009664,5.29300749 2.10005469,5.09486322 2.27120682,5.02226157 L10.9574397,1.32886978 C11.0394526,1.29232129 11.1328125,1.29073997 11.2162127,1.32448671 Z" id="Safari-Pinned-Tab"></path>
                </g>
            </g>
        </g>
    </g>
</svg>